<svg width="24" height="24" viewBox="0 0 24 24" fill="none" xmlns="http://www.w3.org/2000/svg">
<g id="Logo">
<path id="Vector" d="M17.775 1.5L6.225 1.5C3.61517 1.5 1.5 3.61517 1.5 6.225L1.5 17.775C1.5 20.3843 3.61517 22.5 6.225 22.5H17.775C20.3848 22.5 22.5 20.3843 22.5 17.775V6.225C22.5 3.61517 20.3848 1.5 17.775 1.5Z" fill="url(#paint0_linear_9667_813)"/>
<path id="Vector_2" d="M12.6514 13.815C12.5774 13.703 12.4954 13.598 12.4024 13.5045H10.0744L13.6609 7.38351C13.8704 7.02601 13.7504 6.56651 13.3934 6.35701C13.0354 6.14751 12.5759 6.26751 12.3674 6.62501L11.9324 7.36701L11.4974 6.62451C11.2884 6.26701 10.8289 6.14751 10.4714 6.35651C10.1139 6.56551 9.99389 7.02501 10.2034 7.38251L11.0634 8.85001L8.33589 13.5045H6.15039C5.73589 13.5045 5.40039 13.837 5.40039 14.2465C5.40039 14.656 5.73589 14.9885 6.15039 14.9885H12.8474C12.9444 14.662 12.9179 14.2975 12.7369 13.9595L12.6514 13.815Z" fill="white"/>
<path id="Vector_3" d="M7.31257 16.001C7.15407 15.9965 6.99857 16.014 6.84657 16.0445L6.60307 16.46C6.39357 16.8175 6.51357 17.277 6.87107 17.4865C6.99007 17.5565 7.12107 17.5895 7.24957 17.5895C7.50707 17.5895 7.75807 17.4565 7.89707 17.219L8.32957 16.4805C8.08607 16.2025 7.73457 16.0135 7.31457 16.001H7.31257Z" fill="white"/>
<path id="Vector_4" d="M17.8504 13.5045H15.5289L13.4554 9.96649L13.0739 10.618C12.8519 11.093 12.8219 11.63 12.9814 12.1235L15.9674 17.219C16.1069 17.457 16.3574 17.5895 16.6149 17.5895C16.7434 17.5895 16.8744 17.5565 16.9934 17.4865C17.3509 17.277 17.4704 16.8175 17.2609 16.46L16.3984 14.9885H17.8504C18.2649 14.9885 18.6004 14.656 18.6004 14.2465C18.6004 13.837 18.2649 13.5045 17.8504 13.5045Z" fill="white"/>
</g>
<defs>
<linearGradient id="paint0_linear_9667_813" x1="12" y1="0.69325" x2="12" y2="21.3893" gradientUnits="userSpaceOnUse">
<stop stop-color="#33BEF0"/>
<stop offset="1" stop-color="#0A85D9"/>
</linearGradient>
</defs>
</svg>
